External Loads File
version=1
nRows=78
nColumns=13
Range=5.000000e-03-10 seconds
endheader
time 	forceRightX 	forceRightY 	forceRightZ 	pointRightX 	pointRightY 	pointRightZ 	forceLeftX 	forceLeftY 	forceLeftZ 	pointLeftX 	pointLeftY 	pointLeftZ 		
0.005000 31.851809 115.708756 -0.000000 0.330357 0.425539 -0.125596 37.039387 158.852795 -0.000000 0.062508 0.207785 -0.359067
0.010000 30.929575 115.546824 -0.000000 0.330292 0.425673 -0.125596 37.843245 158.963177 -0.000000 0.062583 0.207675 -0.359087
0.015000 30.053531 115.391349 -0.000000 0.330254 0.425788 -0.125594 38.554351 159.033102 -0.000000 0.062645 0.207553 -0.359087
0.020000 29.254328 115.257657 -0.000000 0.330155 0.425829 -0.125445 39.103283 159.053370 -0.000000 0.062714 0.207405 -0.359089
0.025000 27.228248 115.477573 -0.000000 0.330145 0.426155 -0.125435 37.601217 159.447237 -0.000000 0.062763 0.202384 -0.359057
0.030000 27.973992 115.093757 -0.000000 0.330068 0.426299 -0.125408 39.522730 158.861875 -0.000000 0.062748 0.207219 -0.358983
0.035000 27.547041 115.068060 -0.000000 0.330033 0.426413 -0.125403 39.425654 158.612198 -0.000000 0.062795 0.207103 -0.358986
0.040000 27.251558 115.086196 -0.000000 0.329975 0.426515 -0.125381 39.178918 158.291724 -0.000000 0.062871 0.207051 -0.359015
0.045000 27.063141 115.144566 -0.000000 0.329930 0.426617 -0.125396 38.876741 157.971116 -0.000000 0.062917 0.206973 -0.359010
0.050000 26.961643 115.232102 -0.000000 0.329861 0.426698 -0.125412 38.654128 157.746831 -0.000000 0.062964 0.206919 -0.359023
0.055000 26.907769 115.340836 -0.000000 0.329788 0.426807 -0.125409 38.612412 157.724771 -0.000000 0.063012 0.206862 -0.359001
0.060000 26.885392 115.463844 -0.000000 0.329704 0.426913 -0.125392 38.804759 157.954580 -0.000000 0.063064 0.206779 -0.358992
0.065000 26.908239 115.606563 -0.000000 0.329613 0.427001 -0.125398 39.190142 158.386019 -0.000000 0.063131 0.206714 -0.358989
0.070000 26.954110 115.796302 -0.000000 0.329439 0.427106 -0.125144 39.580659 158.904140 -0.000000 0.063202 0.206627 -0.359005
0.075000 27.065575 116.027737 -0.000000 0.329307 0.427210 -0.125117 39.875232 159.345651 -0.000000 0.063186 0.206468 -0.358866
0.080000 27.215320 116.278361 -0.000000 0.329192 0.427334 -0.125120 39.944531 159.598741 -0.000000 0.063251 0.206377 -0.358856
0.085000 27.415086 116.501173 -0.000000 0.329157 0.427400 -0.125401 39.806696 159.612512 -0.000000 0.063305 0.206270 -0.358857
0.090000 27.642011 116.667988 -0.000000 0.329039 0.427345 -0.125455 39.516568 159.436863 -0.000000 0.063343 0.206197 -0.358871
0.095000 27.821077 116.790489 -0.000000 0.328936 0.427450 -0.125486 39.092227 159.193581 -0.000000 0.063410 0.206126 -0.358880
0.100000 27.989030 116.884133 -0.000000 0.328844 0.427631 -0.125481 38.675366 158.970511 -0.000000 0.063458 0.206054 -0.358896
0.105000 28.195798 116.981225 -0.000000 0.328751 0.427754 -0.125531 38.366987 158.829396 -0.000000 0.063503 0.205990 -0.358894
0.110000 28.490649 117.115646 -0.000000 0.328669 0.427750 -0.125525 38.233547 158.801858 -0.000000 0.063539 0.205950 -0.358902
0.115000 28.820484 117.318449 -0.000000 0.328592 0.427801 -0.125386 38.215640 158.912935 -0.000000 0.063600 0.205933 -0.359006
0.120000 29.186512 117.558549 -0.000000 0.328539 0.427828 -0.125364 38.351506 159.126447 -0.000000 0.063619 0.205889 -0.359004
0.125000 29.711242 117.737936 -0.000000 0.328494 0.427183 -0.125352 38.842001 159.334126 -0.000000 0.063637 0.205856 -0.359003
0.130000 29.993970 117.889012 -0.000000 0.328466 0.427201 -0.125346 39.158552 159.584155 -0.000000 0.063649 0.205835 -0.359005
0.135000 29.961524 117.987294 -0.000000 0.328458 0.428006 -0.125356 39.184192 159.818645 -0.000000 0.063649 0.205838 -0.358998
0.140000 29.991694 117.923764 -0.000000 0.328452 0.428042 -0.125375 39.382258 159.850799 -0.000000 0.063634 0.205830 -0.359002
0.145000 29.899969 117.760388 -0.000000 0.328450 0.428041 -0.125369 39.458496 159.732003 -0.000000 0.063629 0.205844 -0.359007
0.150000 29.701155 117.526438 -0.000000 0.328462 0.428046 -0.125376 39.439573 159.518674 -0.000000 0.063619 0.205860 -0.358997
0.155000 29.427270 117.255732 -0.000000 0.328473 0.428037 -0.125390 39.430310 159.320752 -0.000000 0.063608 0.205852 -0.359002
0.160000 29.131256 116.982843 -0.000000 0.328491 0.428042 -0.125372 39.573665 159.257475 -0.000000 0.063606 0.205855 -0.359006
0.165000 28.875047 116.747317 -0.000000 0.328499 0.428038 -0.125333 39.978553 159.409994 -0.000000 0.063599 0.205864 -0.359009
0.170000 28.718876 116.590835 -0.000000 0.328527 0.428034 -0.125344 40.664947 159.783077 -0.000000 0.063588 0.205872 -0.358995
0.175000 28.673366 116.546068 -0.000000 0.328528 0.428039 -0.125343 41.504759 160.304080 -0.000000 0.063584 0.205849 -0.358984
0.180000 28.757763 116.602211 -0.000000 0.328524 0.428037 -0.125334 42.350801 160.823090 -0.000000 0.063576 0.205840 -0.358964
0.185000 28.928843 116.732681 -0.000000 0.328520 0.428049 -0.125332 42.979268 161.187462 -0.000000 0.063587 0.205846 -0.358986
0.190000 29.131473 116.909879 -0.000000 0.328496 0.428102 -0.125336 43.193123 161.285152 -0.000000 0.063593 0.205844 -0.358980
0.195000 29.354566 117.105815 -0.000000 0.328487 0.428111 -0.125327 42.949313 161.073800 -0.000000 0.063613 0.205812 -0.358977
0.200000 29.562129 117.304682 -0.000000 0.328451 0.428132 -0.125312 42.293302 160.614420 -0.000000 0.063632 0.205779 -0.358977
0.205000 29.725188 117.487593 -0.000000 0.328428 0.428176 -0.125322 41.380993 160.030000 -0.000000 0.063671 0.205727 -0.358972
0.210000 29.834625 117.641911 -0.000000 0.328387 0.428230 -0.125338 40.417585 159.463643 -0.000000 0.063703 0.205670 -0.358977
0.215000 29.896800 117.779026 -0.000000 0.328329 0.428286 -0.125311 39.565359 159.038775 -0.000000 0.063752 0.205606 -0.358985
0.220000 29.963814 117.910801 -0.000000 0.328293 0.428339 -0.125284 38.965635 158.807993 -0.000000 0.063787 0.205582 -0.358980
0.225000 30.004436 118.055305 -0.000000 0.328229 0.428373 -0.125283 38.592192 158.783852 -0.000000 0.063843 0.205515 -0.358976
0.230000 30.023618 118.208755 -0.000000 0.328183 0.428460 -0.125287 38.425602 158.922608 -0.000000 0.063880 0.205462 -0.358981
0.235000 30.037907 118.370736 -0.000000 0.328187 0.428534 -0.125385 38.426854 159.164795 -0.000000 0.063932 0.205411 -0.358980
0.240000 30.072338 118.544729 -0.000000 0.328134 0.428466 -0.125368 38.560534 159.449490 -0.000000 0.063994 0.205369 -0.358976
0.245000 30.188402 118.706647 -0.000000 0.328087 0.428071 -0.125373 38.863919 159.697349 -0.000000 0.064043 0.205291 -0.358984
0.250000 30.053780 118.900943 -0.000000 0.328011 0.428560 -0.125327 38.864552 159.942528 -0.000000 0.064091 0.205235 -0.358980
0.255000 30.012257 118.991413 -0.000000 0.327956 0.428607 -0.125314 38.979684 159.996447 -0.000000 0.064135 0.205196 -0.358988
0.260000 29.896979 118.992990 -0.000000 0.327923 0.428828 -0.125328 38.900506 159.865302 -0.000000 0.064177 0.205140 -0.358983
0.265000 29.823736 118.876350 -0.000000 0.327879 0.428874 -0.125325 38.699856 159.511497 -0.000000 0.064235 0.205096 -0.358974
0.270000 29.783052 118.657741 -0.000000 0.327838 0.428922 -0.125256 38.350972 158.996944 -0.000000 0.064263 0.205061 -0.358973
0.275000 29.781098 118.356229 -0.000000 0.327824 0.428964 -0.125267 37.950063 158.436505 -0.000000 0.064301 0.205037 -0.358975
0.280000 29.791324 118.006983 -0.000000 0.327797 0.429004 -0.125269 37.621108 157.983473 -0.000000 0.064341 0.204990 -0.358961
0.285000 29.808076 117.648965 -0.000000 0.327792 0.429059 -0.125253 37.505449 157.755379 -0.000000 0.064387 0.204930 -0.358960
0.290000 29.828815 117.326915 -0.000000 0.327676 0.429072 -0.124989 37.651657 157.787648 -0.000000 0.064427 0.204882 -0.358976
0.295000 29.895466 117.062910 -0.000000 0.327676 0.429089 -0.124989 38.050235 157.998319 -0.000000 0.064470 0.204827 -0.358970
0.300000 29.961608 116.864656 -0.000000 0.327660 0.429132 -0.124996 38.517381 158.254616 -0.000000 0.064515 0.204771 -0.358975
0.305000 29.996659 116.700587 -0.000000 0.327659 0.429165 -0.125001 38.907819 158.403650 -0.000000 0.064588 0.204705 -0.358995
0.310000 29.970289 116.535880 -0.000000 0.327641 0.429207 -0.125004 39.118189 158.346580 -0.000000 0.064639 0.204645 -0.358996
0.315000 29.874529 116.350678 -0.000000 0.327610 0.429244 -0.125012 39.123155 158.065993 -0.000000 0.064691 0.204606 -0.359000
0.320000 29.688968 116.142917 -0.000000 0.327596 0.429305 -0.125008 38.940240 157.623411 -0.000000 0.064750 0.204519 -0.358983
0.325000 29.420123 115.905822 -0.000000 0.327553 0.429362 -0.125014 38.663377 157.108490 -0.000000 0.064814 0.204430 -0.358983
0.330000 29.088224 115.639006 -0.000000 0.327500 0.429425 -0.125015 38.383139 156.608886 -0.000000 0.064860 0.204364 -0.358953
0.335000 28.700748 115.370903 -0.000000 0.327434 0.429514 -0.125005 38.104165 156.194756 -0.000000 0.064940 0.204305 -0.358946
0.340000 28.326761 115.133702 -0.000000 0.327372 0.429576 -0.124992 37.861830 155.892002 -0.000000 0.065006 0.204215 -0.358942
0.345000 27.999265 114.965277 -0.000000 0.327323 0.429701 -0.125015 37.636833 155.726357 -0.000000 0.065090 0.204111 -0.358932
0.350000 27.810529 114.878094 -0.000000 0.327247 0.429749 -0.124992 37.508424 155.690236 -0.000000 0.065155 0.204033 -0.358921
0.355000 27.799113 114.885440 -0.000000 0.327367 0.429820 -0.125531 37.510632 155.767262 -0.000000 0.065218 0.203963 -0.358915
0.360000 27.876067 115.007372 -0.000000 0.327283 0.429884 -0.125533 37.529452 155.947888 -0.000000 0.065269 0.203911 -0.358920
0.365000 28.056882 115.216648 -0.000000 0.327217 0.429930 -0.125527 37.584989 156.158451 -0.000000 0.065323 0.203850 -0.358905
0.370000 28.281275 115.500348 -0.000000 0.327064 0.430032 -0.125291 37.571402 156.346009 -0.000000 0.065363 0.203810 -0.358931
0.375000 28.572114 115.823089 -0.000000 0.327001 0.430095 -0.125271 37.516510 156.457281 -0.000000 0.065403 0.203756 -0.358913
0.380000 28.877850 116.154117 -0.000000 0.326935 0.430138 -0.125264 37.420464 156.507302 -0.000000 0.065435 0.203734 -0.358910
0.385000 29.140514 116.454694 -0.000000 0.326895 0.430181 -0.125280 37.343557 156.563244 -0.000000 0.065453 0.203674 -0.358914
0.390000 29.341754 116.688248 -0.000000 0.326840 0.430217 -0.125266 37.399730 156.707790 -0.000000 0.065474 0.203641 -0.358919
